<svg xmlns="http://www.w3.org/2000/svg" xmlns:xlink="http://www.w3.org/1999/xlink" xmlns:svgjs="http://svgjs.com/svgjs" version="1.1" width="1142.795246887207" height="642.6755710601808"><rect width="1142.795246887207" height="642.6755710601808" fill="#3E606F"></rect><g transform="scale(5) translate(30, 30)"> <defs id="SvgjsDefs35034"></defs><g xmlns:name="main_text" id="SvgjsG35035" rel="mainfill" name="main_text" transform="translate(100.64904416561126,-189.55244258880614)" fill="#ffffff" style="fill: #ffffff"><path d="M6.52 242.16C7.20 242.84 7.92 243.19 8.73 243.19C12.78 243.19 17.59 235.77 19.48 230.73C19.71 230.06 19.84 229.43 19.84 228.79C19.84 226.00 17.68 223.35 14.71 223.08C13.95 223.03 13.59 222.90 13.59 222.45C13.59 221.37 16.16 218.13 17.19 216.33C18.27 214.49 19.44 212.59 19.39 210.34L19.39 209.85C19.39 209.63 19.44 209.40 19.44 209.18C19.44 206.16 17.50 204.45 14.80 204.45C9.81 204.45 4.14 208.00 1.48 211.20C1.35 211.34 1.35 211.56 1.35 211.78C1.35 212.06 1.40 212.41 1.40 212.73C2.16 212.41 2.43 212.69 3.38 211.78C6.12 209.18 10.57 206.25 14.31 206.25C16.29 206.25 17.50 207.47 17.50 209.31C17.50 209.99 17.32 211.29 16.92 211.69C14.71 215.52 12.51 219.34 10.21 223.17C9.67 224.07 8.23 225.47 7.51 225.47C7.06 225.47 6.88 225.15 6.88 224.66C6.88 224.56 6.88 224.52 6.93 224.43C7.42 221.19 8.55 217.68 8.55 214.49C8.55 213.50 8.14 212.96 6.52 212.96C5.17 212.96 4.54 214.31 4.23 216.19C3.33 221.19 2.43 226.14 1.67 231.13C1.57 231.81 1.53 232.49 1.53 233.16C1.53 234.33 1.67 235.46 1.80 236.53C1.89 237.16 2.61 237.71 3.10 238.34C3.82 237.57 4.59 237.12 4.81 235.77C5.26 233.07 5.89 230.46 8.50 228.84L8.87 228.44C10.08 226.59 12.78 225.28 14.63 225.28C16.02 225.28 17.10 226.77 17.10 228.07C17.10 228.44 17.05 228.79 16.92 229.16C15.88 232.80 13.63 235.81 11.21 238.69C10.75 239.24 10.17 239.96 9.49 239.96C8.10 239.96 8.01 237.88 7.47 237.88C6.79 237.88 5.94 239.06 5.94 240.13C5.94 240.68 6.12 241.35 6.52 242.16ZM41.53 212.41C40.81 209.94 39.06 206.52 36 206.52C33.75 206.52 31.77 208.86 30.55 210.34C27 214.71 24.62 220.29 22.91 225.56C22.23 227.58 21.64 230.32 21.64 232.98C21.64 237.30 23.31 241.98 28.84 241.98C33.52 241.98 38.12 237.93 41.85 235.23C42.66 234.65 43.16 233.21 43.16 232.35C43.16 231.94 43.02 231.63 42.75 231.63C42.66 231.63 42.52 231.68 42.39 231.76C38.70 234.42 34.06 236.67 29.43 236.67C27 236.67 23.94 235.77 23.94 232.62C23.94 230.73 24.84 228.57 25.29 227.26C26.82 222.94 28.94 218.67 31.73 215.03C32.85 213.54 34.38 211.34 36.31 211.34C38.30 211.34 39.33 215.34 39.60 215.34L39.60 215.30C39.83 216.06 40.14 216.38 40.41 216.38C41.04 216.38 41.63 214.66 41.63 213.31C41.63 213 41.63 212.69 41.53 212.41ZM57.78 238.51C57.87 238.51 57.96 238.56 58.09 238.56C58.09 239.06 58.05 239.59 58.05 240.09C58.05 240.99 58.63 242.43 59.27 242.43C61.47 242.43 61.47 238.02 62.01 235.95C63.54 228.57 65.20 221.19 66.87 213.85C67.14 212.55 67.91 211.06 67.91 209.90C67.91 209.09 67.28 208.50 65.88 208.50C65.30 208.50 64.71 208.72 64.35 209.53C61.42 216.38 58.14 223.31 54.99 230.01C54.72 230.55 54.23 230.87 53.91 231.27C53.64 230.73 53.23 230.28 53.19 229.78C52.78 226.28 52.52 222.76 52.20 219.25C51.93 216.10 52.56 210.93 49.14 210.93C47.79 210.93 47.38 211.92 47.25 213.18C46.48 219.75 45.18 226.28 44.55 232.98C44.51 233.16 44.51 233.38 44.51 233.56C44.51 235.19 45.13 238.43 46.35 238.43C47.34 238.43 47.79 236.76 47.88 235.54L49.32 223.31C49.41 222.45 49.81 221.64 50.09 220.88C50.27 221.82 50.63 222.63 50.76 223.49C51.39 227.49 51.84 231.59 52.52 235.54C52.61 236.13 53.19 236.58 53.55 237.12C53.95 236.67 54.50 236.31 54.72 235.81C56.25 232.22 57.42 228.53 58.95 225.10C59.09 224.79 59.40 224.70 59.67 224.47C59.80 224.79 59.98 225.10 59.98 225.38C59.94 226.14 59.80 227.00 59.67 227.72C59.04 231.31 58.37 234.96 57.78 238.51Z" fill="#ffffff" style="fill: #ffffff"></path></g><g xmlns:name="symbol_mainfill" id="SvgjsG35036" rel="mainfill" name="symbol" transform="translate(-1652.6658911132813,71.24516899108886) scale(0.87)" fill="#ffffff" style="fill: #ffffff"><path d="M1980.061-63.957c-0.481-0.053-1.006-0.535-1.055-1.101c-0.01-0.132-0.018-0.258-0.045-0.382  c-0.229-2.22-2.09-3.961-4.367-3.961c-2.537,0-4.68,2.021-4.68,4.412c0,2.6,1.924,4.415,4.68,4.415c1.047,0,1.998-0.382,2.754-0.992  c0.718,0.536,1.599,0.88,2.572,0.92c1.348,0.049,2.582-0.396,3.494-1.271c0.848-0.812,1.137-1.983,1.133-3.07  c0.127-2.649-1.011-5.12-2.682-6.938c-1.841-2.001-4.335-3.197-7.07-3.197c-0.002,0-0.002,0-0.002,0  c-2.889,0-5.795,1.161-7.619,3.627c-1.121,1.514-2.465,3.462-2.465,6.508c0,2.768,0.545,5.228,2.559,7.266  c1.578,1.598,4.591,2.87,7.326,2.87c1.779,0,3.205-0.355,4.768-1.189c0.836-0.446,1.234-1.536,0.704-2.321  c-0.472-0.699-1.563-0.733-2.455-0.513c-0.972,0.241-1.616,0.751-3.013,0.751c-1.766,0-4.053-0.888-4.926-1.85  c-1.291-1.424-1.781-3.1-1.781-5.014c0-1.617,0.494-2.879,1.767-4.493c0.819-1.045,3.187-2.426,5.19-2.426  c1.771,0,3.485,0.832,4.724,2.25c1.138,1.308,1.81,2.884,1.726,4.669C1981.24-64.453,1980.807-63.872,1980.061-63.957z   M1974.633-63.622c-1.033,0.107-1.524-0.723-1.488-1.365c0.039-0.751,0.883-1.216,1.488-1.216c0.541,0,1.084,0.675,1.084,1.216  S1975.498-63.711,1974.633-63.622z" fill="#ffffff" style="fill: #ffffff"></path><path d="M1942.623-33.881c-0.456,2.171-1.039,4.205-1.729,6.104l7.189-1.863c1.982-0.515,3.45-2.185,3.707-4.215l0.42-3.342  c-0.74,0.656-1.625,1.157-2.613,1.427L1942.623-33.881z" fill="#ffffff" style="fill: #ffffff"></path><path d="M1949.609-44.378l-6.477,7.698c-0.031,0.211-0.074,0.409-0.108,0.618l6.05-1.641c1.713-0.465,2.998-1.883,3.29-3.633  l0.172-1.027l0.591-3.53c-0.677,0.317-1.373,0.633-2.109,0.941C1950.559-44.758,1950.09-44.565,1949.609-44.378z" fill="#ffffff" style="fill: #ffffff"></path><path d="M1945.075-81.891v18.188l4-1.586v-12.602h46.54v25.809H1961.1c-1.43,1.398-3.313,2.732-5.633,4h44.148v-33.809H1945.075z" fill="#ffffff" style="fill: #ffffff"></path><path d="M1960.989-64.103c-0.002-0.004-0.006-0.007-0.009-0.011c-0.198-0.215-0.415-0.407-0.643-0.585  c-0.024-0.019-0.049-0.04-0.072-0.059c-0.221-0.167-0.455-0.312-0.696-0.442c-0.099-0.052-0.2-0.094-0.302-0.14  c-0.129-0.059-0.258-0.113-0.389-0.163c-0.154-0.056-0.31-0.105-0.467-0.147c-0.057-0.017-0.113-0.025-0.169-0.039  c-0.226-0.055-0.455-0.086-0.687-0.112c-0.129-0.014-0.262-0.021-0.394-0.024c-0.067-0.003-0.137-0.003-0.206-0.003  c-0.652,0.007-1.312,0.126-1.947,0.378l-5.33,2.115l-4,1.587l-8.979,3.562c-0.588,0.232-1.132,0.567-1.604,0.987l-9.685,8.591  l-1.205-1.358l9.685-8.59c0.635-0.562,1.354-1.007,2.142-1.319l7.243-2.955v-10.895h-5.583c-0.693,0-1.379,0.132-2.022,0.39  l-14.527,7.263c-1.23,0.493-2.239,1.417-2.838,2.6l-18.689,26.419v33.938c0,0,14.419-2.729,17.111-3.839  c5.14-2.117,16.498-5.529,22.09-20.899c0.049-0.14,0.098-0.276,0.148-0.424c0.586-1.725,1.195-3.93,1.685-6.108  c0.047-0.208,0.089-0.413,0.134-0.62c0.066-0.341,0.139-0.676,0.2-1.025c0.03-0.165,0.058-0.333,0.086-0.5  c0.108-0.635,0.212-1.276,0.304-1.94l0.815-0.969l0.118-0.142l6.177-7.341c0.122-0.047,0.245-0.098,0.366-0.146  c0.799-0.312,1.607-0.652,2.416-1.013c0.656-0.292,1.312-0.593,1.957-0.915c0.146-0.072,0.289-0.145,0.434-0.219  c0.48-0.246,0.953-0.5,1.416-0.763c1.143-0.648,2.215-1.354,3.186-2.104c1.924-1.488,3.418-3.169,4.058-5.047  c0.725-2.13,0.461-4.338-0.741-6.217C1961.399-63.619,1961.202-63.871,1960.989-64.103z" fill="#ffffff" style="fill: #ffffff"></path></g> </g></svg>
